<svg xmlns="http://www.w3.org/2000/svg" viewBox="0 0 128 128" role="img" aria-label="Commit Roast">
  <rect width="128" height="128" rx="24" fill="#111827"/>
  <path d="M65 18c8 14-2 22 9 33 3-12 13-17 13-17-1 13 13 24 13 42 0 21-16 37-36 37S28 97 28 76c0-18 12-29 21-40 7-9 9-16 6-27 0 0 7 2 10 9z" fill="#F97316"/>
  <path d="M64 51c5 8-1 13 5 20 2-7 8-10 8-10-1 8 7 14 7 25 0 13-9 23-20 23s-20-10-20-23c0-11 6-17 11-24 5-5 6-10 4-16 0 0 4 1 5 5z" fill="#FDBA74"/>
  <path d="M45 64h38M64 64v27" stroke="#111827" stroke-width="7" stroke-linecap="round"/>
  <circle cx="45" cy="64" r="6" fill="#111827"/>
  <circle cx="83" cy="64" r="6" fill="#111827"/>
  <circle cx="64" cy="91" r="7" fill="#111827"/>
</svg>
